<?xml version="1.0" encoding="utf-8"?>
<!-- Generator: Adobe Illustrator 24.1.0, SVG Export Plug-In . SVG Version: 6.00 Build 0)  -->
<svg version="1.1" id="Layer_1" xmlns="http://www.w3.org/2000/svg" xmlns:xlink="http://www.w3.org/1999/xlink" x="0px" y="0px"
	 viewBox="0 0 1627 410" style="enable-background:new 0 0 1627 410;" xml:space="preserve">
<style type="text/css">
	.st0{fill:#FFFFFF;}
	.st1{fill:#1A1A1A;}
	.st2{fill:#6CBBE8;}
</style>
<rect class="st0" width="1627" height="410"/>
<g>
	<g>
		<polygon class="st2" points="217.034,-0.032 183.91,-0.032 195.276,58.977 109.502,-0.032 52.115,-0.032 242.225,130.757 		"/>
		<polygon class="st2" points="404.89,-0.032 365.612,-0.032 301.846,94.167 284.429,-0.032 251.351,-0.032 284.292,178.122 		"/>
		<polygon class="st2" points="410.564,215.626 410.564,182.482 353.058,193.75 410.564,109.581 410.564,51.925 281.43,240.931 		
			"/>
		<polygon class="st2" points="317.454,301.068 410.564,284.057 410.564,250.991 233.536,283.335 410.564,403.721 410.564,364.385 
					"/>
		<polygon class="st2" points="0.5,7.133 0.5,46.469 93.609,109.786 0.5,126.798 0.5,159.863 177.528,127.52 		"/>
		<polygon class="st2" points="195.692,410.032 228.816,410.032 217.451,351.024 303.221,410.032 360.608,410.032 170.501,279.244 
					"/>
		<polygon class="st2" points="7.837,410.032 47.115,410.032 110.88,315.835 128.297,410.032 161.375,410.032 128.434,231.878 		"/>
		<polygon class="st2" points="0.5,194.701 0.5,227.845 59.668,216.251 0.5,302.851 0.5,360.507 131.297,169.07 		"/>
	</g>
	<g>
		<path class="st1" d="M648.16,273.456H619.23v-18.751h-0.536c-4.11,8.036-10.091,13.795-17.947,17.278
			c-7.86,3.483-16.165,5.224-24.913,5.224c-10.895,0-20.405-1.921-28.529-5.76c-8.128-3.838-14.867-9.062-20.225-15.67
			c-5.357-6.605-9.376-14.419-12.054-23.439c-2.678-9.016-4.018-18.705-4.018-29.065c0-12.499,1.695-23.306,5.09-32.414
			c3.39-9.108,7.902-16.608,13.528-22.501c5.626-5.893,12.054-10.222,19.287-12.992c7.233-2.767,14.599-4.153,22.1-4.153
			c4.286,0,8.66,0.402,13.126,1.206c4.462,0.804,8.748,2.101,12.858,3.884c4.106,1.787,7.902,4.065,11.385,6.831
			c3.482,2.771,6.383,6.027,8.706,9.777h0.536V82.193h30.538V273.456z M541.546,205.683c0,5.893,0.758,11.699,2.277,17.412
			c1.515,5.718,3.838,10.808,6.965,15.269c3.122,4.467,7.099,8.037,11.92,10.715c4.822,2.678,10.535,4.018,17.144,4.018
			c6.784,0,12.632-1.427,17.546-4.286c4.91-2.854,8.928-6.605,12.054-11.251c3.122-4.641,5.446-9.865,6.965-15.67
			c1.515-5.802,2.277-11.741,2.277-17.814c0-15.356-3.44-27.323-10.313-35.895c-6.877-8.572-16.207-12.859-27.993-12.859
			c-7.145,0-13.172,1.474-18.081,4.421c-4.914,2.946-8.932,6.788-12.054,11.518c-3.127,4.734-5.358,10.091-6.697,16.073
			C542.216,193.319,541.546,199.434,541.546,205.683z"/>
		<path class="st1" d="M695.623,212.112c0,5.358,0.758,10.539,2.277,15.536c1.515,5.003,3.792,9.377,6.831,13.127
			c3.034,3.75,6.872,6.743,11.518,8.974c4.642,2.235,10.179,3.348,16.608,3.348c8.928,0,16.115-1.917,21.564-5.759
			c5.446-3.838,9.51-9.597,12.188-17.278h28.931c-1.607,7.5-4.378,14.197-8.304,20.091c-3.93,5.893-8.665,10.849-14.198,14.867
			c-5.537,4.018-11.744,7.057-18.617,9.108c-6.877,2.051-14.063,3.08-21.564,3.08c-10.895,0-20.539-1.787-28.931-5.358
			c-8.396-3.57-15.495-8.572-21.296-15.001c-5.805-6.428-10.179-14.105-13.126-23.037c-2.946-8.928-4.42-18.751-4.42-29.466
			c0-9.819,1.561-19.153,4.688-27.993c3.122-8.84,7.589-16.608,13.394-23.305c5.801-6.697,12.812-12.008,21.028-15.939
			c8.212-3.926,17.5-5.893,27.859-5.893c10.891,0,20.668,2.277,29.332,6.831c8.66,4.554,15.847,10.581,21.564,18.081
			c5.714,7.501,9.866,16.119,12.456,25.85c2.587,9.735,3.256,19.781,2.009,30.136H695.623z M766.878,192.021
			c-0.36-4.822-1.386-9.464-3.081-13.929c-1.699-4.462-4.018-8.346-6.965-11.653c-2.947-3.302-6.521-5.981-10.715-8.036
			c-4.198-2.051-8.886-3.081-14.064-3.081c-5.357,0-10.225,0.938-14.599,2.813c-4.378,1.875-8.128,4.466-11.251,7.768
			c-3.127,3.307-5.626,7.191-7.501,11.653c-1.875,4.466-2.905,9.288-3.081,14.465H766.878z"/>
		<path class="st1" d="M815.769,134.964h28.931v18.751h0.536c4.286-8.037,10.267-13.795,17.947-17.279
			c7.677-3.482,15.981-5.224,24.913-5.224c10.891,0,20.4,1.921,28.529,5.76c8.124,3.843,14.867,9.108,20.225,15.805
			c5.358,6.697,9.376,14.511,12.054,23.439c2.679,8.932,4.018,18.483,4.018,28.663c0,9.288-1.205,18.308-3.616,27.056
			c-2.411,8.752-6.073,16.474-10.983,23.171c-4.914,6.696-11.117,12.054-18.617,16.072c-7.501,4.019-16.34,6.027-26.52,6.027
			c-4.466,0-8.932-0.402-13.394-1.206c-4.466-0.803-8.752-2.1-12.858-3.884c-4.11-1.783-7.902-4.06-11.385-6.83
			c-3.483-2.767-6.387-6.027-8.706-9.777h-0.536v69.111h-30.538V134.964z M922.383,204.343c0-6.249-0.804-12.322-2.411-18.215
			c-1.608-5.893-4.018-11.117-7.233-15.671c-3.215-4.554-7.233-8.212-12.054-10.982c-4.822-2.767-10.359-4.153-16.608-4.153
			c-12.858,0-22.548,4.467-29.065,13.395c-6.521,8.932-9.778,20.807-9.778,35.627c0,6.965,0.846,13.44,2.545,19.421
			c1.695,5.985,4.24,11.117,7.635,15.403c3.39,4.286,7.454,7.681,12.188,10.179c4.729,2.503,10.221,3.75,16.474,3.75
			c6.965,0,12.858-1.427,17.679-4.286c4.822-2.854,8.794-6.563,11.92-11.117c3.122-4.554,5.358-9.731,6.697-15.536
			C921.713,216.356,922.383,210.417,922.383,204.343z"/>
		<path class="st1" d="M1095.167,277.206c-11.075,0-20.941-1.833-29.6-5.492c-8.664-3.658-15.984-8.706-21.966-15.135
			c-5.985-6.428-10.539-14.105-13.661-23.037c-3.127-8.928-4.688-18.751-4.688-29.466c0-10.534,1.561-20.266,4.688-29.198
			c3.122-8.928,7.676-16.608,13.661-23.037c5.981-6.428,13.302-11.472,21.966-15.135c8.66-3.658,18.525-5.492,29.6-5.492
			c11.071,0,20.936,1.833,29.6,5.492c8.66,3.663,15.981,8.707,21.966,15.135c5.981,6.429,10.535,14.109,13.661,23.037
			c3.122,8.932,4.688,18.664,4.688,29.198c0,10.715-1.565,20.539-4.688,29.466c-3.127,8.932-7.68,16.609-13.661,23.037
			c-5.985,6.429-13.306,11.477-21.966,15.135C1116.103,275.372,1106.238,277.206,1095.167,277.206z M1095.167,253.097
			c6.785,0,12.678-1.427,17.68-4.286c4.997-2.854,9.108-6.605,12.322-11.251c3.214-4.641,5.579-9.865,7.099-15.67
			c1.515-5.802,2.277-11.741,2.277-17.814c0-5.893-0.762-11.786-2.277-17.679c-1.52-5.893-3.885-11.117-7.099-15.671
			c-3.215-4.554-7.325-8.258-12.322-11.116c-5.002-2.855-10.895-4.287-17.68-4.287c-6.789,0-12.682,1.431-17.68,4.287
			c-5.002,2.858-9.108,6.562-12.322,11.116c-3.214,4.554-5.583,9.777-7.099,15.671c-1.519,5.893-2.277,11.787-2.277,17.679
			c0,6.073,0.758,12.013,2.277,17.814c1.515,5.805,3.885,11.029,7.099,15.67c3.215,4.647,7.321,8.397,12.322,11.251
			C1082.485,251.67,1088.378,253.097,1095.167,253.097z"/>
		<path class="st1" d="M1169.503,134.964h33.484l36.163,103.399h0.536l35.091-103.399h31.877l-53.843,145.991
			c-2.503,6.249-4.956,12.231-7.367,17.948c-2.411,5.713-5.358,10.756-8.84,15.135c-3.483,4.374-7.814,7.856-12.992,10.446
			c-5.182,2.587-11.786,3.885-19.823,3.885c-7.145,0-14.197-0.536-21.162-1.608v-25.716c2.499,0.356,4.91,0.758,7.233,1.206
			c2.319,0.444,4.73,0.67,7.233,0.67c3.57,0,6.517-0.448,8.84-1.34c2.319-0.896,4.24-2.189,5.759-3.884
			c1.515-1.699,2.813-3.709,3.884-6.027c1.071-2.322,2.051-5.002,2.946-8.036l3.483-10.715L1169.503,134.964z"/>
		<path class="st1" d="M1315.096,186.128h77.952v28.931h-77.952V186.128z"/>
		<path class="st1" d="M1416.488,134.964h28.663v26.787h0.536c0.892-3.75,2.633-7.408,5.224-10.983
			c2.587-3.57,5.713-6.83,9.376-9.777c3.658-2.946,7.723-5.311,12.188-7.098c4.462-1.783,9.016-2.679,13.661-2.679
			c3.571,0,6.027,0.093,7.367,0.268c1.34,0.181,2.721,0.361,4.152,0.536v29.466c-2.143-0.356-4.332-0.67-6.563-0.938
			c-2.235-0.268-4.42-0.402-6.563-0.402c-5.182,0-10.045,1.03-14.599,3.081c-4.554,2.055-8.53,5.09-11.92,9.108
			c-3.395,4.018-6.073,8.974-8.036,14.867c-1.967,5.893-2.946,12.683-2.946,20.359v65.897h-30.538V134.964z"/>
		<path class="st1" d="M1533.815,228.988c0.891,8.932,4.286,15.181,10.179,18.751c5.893,3.575,12.946,5.358,21.162,5.358
			c2.854,0,6.115-0.222,9.777-0.67c3.658-0.443,7.099-1.293,10.313-2.544c3.215-1.248,5.848-3.08,7.902-5.492
			c2.051-2.41,2.989-5.58,2.813-9.51c-0.18-3.926-1.607-7.14-4.286-9.644c-2.679-2.498-6.119-4.508-10.313-6.027
			c-4.198-1.515-8.974-2.812-14.331-3.884c-5.358-1.072-10.807-2.231-16.34-3.482c-5.717-1.248-11.209-2.766-16.474-4.554
			c-5.27-1.784-10.004-4.194-14.197-7.233c-4.198-3.034-7.547-6.918-10.045-11.652c-2.503-4.73-3.75-10.581-3.75-17.546
			c0-7.5,1.829-13.795,5.492-18.885c3.658-5.09,8.304-9.196,13.929-12.322c5.625-3.122,11.875-5.312,18.751-6.563
			c6.873-1.247,13.436-1.876,19.689-1.876c7.141,0,13.972,0.763,20.493,2.277c6.517,1.52,12.41,3.976,17.679,7.366
			c5.266,3.395,9.644,7.815,13.126,13.261c3.483,5.449,5.667,12.013,6.563,19.689h-31.877c-1.431-7.321-4.78-12.23-10.045-14.733
			c-5.27-2.499-11.297-3.751-18.082-3.751c-2.143,0-4.688,0.181-7.635,0.536c-2.946,0.361-5.717,1.03-8.304,2.009
			c-2.591,0.984-4.78,2.41-6.563,4.286c-1.787,1.875-2.678,4.332-2.678,7.367c0,3.75,1.293,6.788,3.884,9.108
			c2.587,2.322,5.981,4.244,10.179,5.759c4.194,1.52,8.974,2.813,14.331,3.885c5.358,1.071,10.891,2.235,16.608,3.482
			c5.533,1.252,10.983,2.771,16.34,4.554c5.358,1.787,10.133,4.198,14.331,7.232c4.194,3.039,7.589,6.877,10.179,11.519
			c2.587,4.646,3.884,10.359,3.884,17.145c0,8.216-1.875,15.181-5.625,20.894c-3.75,5.717-8.618,10.359-14.599,13.929
			c-5.985,3.575-12.636,6.161-19.957,7.769c-7.325,1.607-14.558,2.41-21.698,2.41c-8.752,0-16.834-0.984-24.243-2.946
			c-7.412-1.964-13.842-4.956-19.287-8.974c-5.449-4.018-9.736-9.016-12.858-15.001c-3.127-5.982-4.78-13.08-4.956-21.296H1533.815z
			"/>
	</g>
	<rect x="973.366" y="81.793" class="st1" width="31.433" height="191.116"/>
</g>
</svg>
